<svg width="24" height="18" viewBox="0 0 24 18" fill="none" xmlns="http://www.w3.org/2000/svg">
<path d="M0 1.5C0 0.671573 0.671573 0 1.5 0H22.5C23.3284 0 24 0.671573 24 1.5C24 2.32843 23.3284 3 22.5 3H1.5C0.671573 3 0 2.32843 0 1.5ZM0 9C0 8.17157 0.671573 7.5 1.5 7.5H22.5C23.3284 7.5 24 8.17157 24 9C24 9.82843 23.3284 10.5 22.5 10.5H1.5C0.671573 10.5 0 9.82843 0 9ZM0 16.5C0 15.6716 0.671573 15 1.5 15H22.5C23.3284 15 24 15.6716 24 16.5C24 17.3284 23.3284 18 22.5 18H1.5C0.671573 18 0 17.3284 0 16.5Z" fill="#001400"/>
</svg>
