<svg width="21" height="22" viewBox="0 0 21 22" fill="none" xmlns="http://www.w3.org/2000/svg">
<path d="M1.02783 5H3.04803H19.2096" stroke="#FB6262" stroke-width="2" stroke-linecap="round" stroke-linejoin="round"/>
<path d="M6.07913 5V3C6.07913 2.46957 6.29197 1.96086 6.67083 1.58579C7.0497 1.21071 7.56354 1 8.09933 1H12.1397C12.6755 1 13.1894 1.21071 13.5682 1.58579C13.9471 1.96086 14.1599 2.46957 14.1599 3V5M17.1902 5V19C17.1902 19.5304 16.9774 20.0391 16.5985 20.4142C16.2197 20.7893 15.7058 21 15.17 21H5.06903C4.53324 21 4.01939 20.7893 3.64053 20.4142C3.26167 20.0391 3.04883 19.5304 3.04883 19V5H17.1902Z" stroke="#FB6262" stroke-width="2" stroke-linecap="round" stroke-linejoin="round"/>
<path d="M8.09912 10V16" stroke="#FB6262" stroke-width="2" stroke-linecap="round" stroke-linejoin="round"/>
<path d="M12.1382 10V16" stroke="#FB6262" stroke-width="2" stroke-linecap="round" stroke-linejoin="round"/>
</svg>
