<svg width="28" height="22" viewBox="0 0 28 22" fill="none" xmlns="http://www.w3.org/2000/svg">
<path d="M27.92 10.61L24.92 3.61C24.8434 3.42925 24.7154 3.27503 24.5518 3.16656C24.3882 3.05809 24.1963 3.00016 24 3H21V1C21 0.734784 20.8946 0.48043 20.7071 0.292893C20.5196 0.105357 20.2652 0 20 0H1C0.734784 0 0.48043 0.105357 0.292893 0.292893C0.105357 0.48043 0 0.734784 0 1V18C0 18.2652 0.105357 18.5196 0.292893 18.7071C0.48043 18.8946 0.734784 19 1 19H3.14C3.37028 19.8474 3.873 20.5954 4.5706 21.1287C5.26819 21.6621 6.1219 21.951 7 21.951C7.8781 21.951 8.73181 21.6621 9.4294 21.1287C10.127 20.5954 10.6297 19.8474 10.86 19H17.14C17.3703 19.8474 17.873 20.5954 18.5706 21.1287C19.2682 21.6621 20.1219 21.951 21 21.951C21.8781 21.951 22.7318 21.6621 23.4294 21.1287C24.127 20.5954 24.6297 19.8474 24.86 19H27C27.2652 19 27.5196 18.8946 27.7071 18.7071C27.8946 18.5196 28 18.2652 28 18V11C27.9997 10.866 27.9725 10.7333 27.92 10.61ZM21 5H23.34L25.48 10H21V5ZM7 20C6.60444 20 6.21776 19.8827 5.88886 19.6629C5.55996 19.4432 5.30362 19.1308 5.15224 18.7654C5.00087 18.3999 4.96126 17.9978 5.03843 17.6098C5.1156 17.2219 5.30608 16.8655 5.58579 16.5858C5.86549 16.3061 6.22186 16.1156 6.60982 16.0384C6.99778 15.9613 7.39991 16.0009 7.76537 16.1522C8.13082 16.3036 8.44318 16.56 8.66294 16.8889C8.8827 17.2178 9 17.6044 9 18C9 18.5304 8.78929 19.0391 8.41421 19.4142C8.03914 19.7893 7.53043 20 7 20ZM17.14 17H10.86C10.6297 16.1526 10.127 15.4046 9.4294 14.8713C8.73181 14.3379 7.8781 14.049 7 14.049C6.1219 14.049 5.26819 14.3379 4.5706 14.8713C3.873 15.4046 3.37028 16.1526 3.14 17H2V2H19V14.56C18.5446 14.8243 18.1459 15.1759 17.8268 15.5946C17.5076 16.0133 17.2742 16.4909 17.14 17ZM21 20C20.6044 20 20.2178 19.8827 19.8889 19.6629C19.56 19.4432 19.3036 19.1308 19.1522 18.7654C19.0009 18.3999 18.9613 17.9978 19.0384 17.6098C19.1156 17.2219 19.3061 16.8655 19.5858 16.5858C19.8655 16.3061 20.2219 16.1156 20.6098 16.0384C20.9978 15.9613 21.3999 16.0009 21.7654 16.1522C22.1308 16.3036 22.4432 16.56 22.6629 16.8889C22.8827 17.2178 23 17.6044 23 18C23 18.5304 22.7893 19.0391 22.4142 19.4142C22.0391 19.7893 21.5304 20 21 20ZM26 17H24.86C24.6389 16.1435 24.1401 15.3845 23.4416 14.8417C22.7432 14.2989 21.8846 14.0029 21 14V12H26V17Z" fill="#001400"/>
</svg>
