<svg width="21" height="20" viewBox="0 0 21 20" fill="none" xmlns="http://www.w3.org/2000/svg">
<path d="M14.6446 1.75204C14.8831 1.51361 15.1661 1.32448 15.4776 1.19545C15.7892 1.06641 16.123 1 16.4602 1C16.7974 1 17.1313 1.06641 17.4428 1.19545C17.7543 1.32448 18.0374 1.51361 18.2758 1.75204C18.5142 1.99046 18.7034 2.27351 18.8324 2.58503C18.9614 2.89655 19.0278 3.23043 19.0278 3.56761C19.0278 3.90479 18.9614 4.23868 18.8324 4.55019C18.7034 4.86171 18.5142 5.14476 18.2758 5.38319L6.02066 17.6383L1.02783 19L2.38951 14.0072L14.6446 1.75204Z" stroke="#6FB740" stroke-width="2" stroke-linecap="round" stroke-linejoin="round"/>
</svg>
