<svg width="34" height="35" viewBox="0 0 34 35" fill="none" xmlns="http://www.w3.org/2000/svg">
<path fill-rule="evenodd" clip-rule="evenodd" d="M9.99136 0.69341C11.8042 0.609872 12.3822 0.591309 17 0.591309C21.6178 0.591309 22.1958 0.611419 24.0071 0.69341C25.8184 0.7754 27.0547 1.06469 28.1365 1.48392C29.2694 1.91243 30.2971 2.58228 31.1471 3.44859C32.0125 4.29789 32.6802 5.32509 33.1067 6.46057C33.5271 7.54346 33.8145 8.78105 33.898 10.591C33.9815 12.4087 34 12.9873 34 17.6082C34 22.2305 33.9799 22.8091 33.898 24.6237C33.8161 26.4337 33.5271 27.6713 33.1067 28.7542C32.6802 29.8898 32.0114 30.9187 31.1471 31.7693C30.2971 32.6356 29.2694 33.3039 28.1365 33.7308C27.0547 34.1516 25.8184 34.4394 24.0102 34.5229C22.1958 34.6064 21.6178 34.625 17 34.625C12.3822 34.625 11.8042 34.6049 9.99136 34.5229C8.18318 34.4409 6.94682 34.1516 5.865 33.7308C4.73051 33.3038 3.70263 32.6344 2.85291 31.7693C1.98804 30.9195 1.31876 29.891 0.891727 28.7557C0.472909 27.6728 0.185455 26.4353 0.102 24.6253C0.0185454 22.8076 0 22.229 0 17.6082C0 12.9858 0.0200909 12.4072 0.102 10.5941C0.183909 8.78105 0.472909 7.54346 0.891727 6.46057C1.31939 5.32521 1.98918 4.29682 2.85445 3.44704C3.70297 2.58151 4.72982 1.91157 5.86345 1.48392C6.94527 1.06469 8.18164 0.776947 9.98982 0.69341H9.99136ZM23.8695 3.75644C22.0768 3.67445 21.539 3.65743 17 3.65743C12.461 3.65743 11.9232 3.67445 10.1305 3.75644C8.47218 3.83224 7.57273 4.10915 6.97309 4.34275C6.18027 4.65215 5.61309 5.01878 5.01809 5.61437C4.45407 6.16363 4.02001 6.83229 3.74773 7.57131C3.51436 8.17154 3.23773 9.07189 3.162 10.7318C3.08009 12.5263 3.06309 13.0647 3.06309 17.6082C3.06309 22.1517 3.08009 22.69 3.162 24.4845C3.23773 26.1444 3.51436 27.0448 3.74773 27.645C4.01973 28.3829 4.454 29.0528 5.01809 29.6019C5.56673 30.1666 6.23591 30.6013 6.97309 30.8736C7.57273 31.1072 8.47218 31.3841 10.1305 31.4599C11.9232 31.5419 12.4595 31.5589 17 31.5589C21.5405 31.5589 22.0768 31.5419 23.8695 31.4599C25.5278 31.3841 26.4273 31.1072 27.0269 30.8736C27.8197 30.5642 28.3869 30.1975 28.9819 29.6019C29.546 29.0528 29.9803 28.3829 30.2523 27.645C30.4856 27.0448 30.7623 26.1444 30.838 24.4845C30.9199 22.69 30.9369 22.1517 30.9369 17.6082C30.9369 13.0647 30.9199 12.5263 30.838 10.7318C30.7623 9.07189 30.4856 8.17154 30.2523 7.57131C29.9432 6.77771 29.5769 6.20996 28.9819 5.61437C28.4332 5.04983 27.7652 4.61535 27.0269 4.34275C26.4273 4.10915 25.5278 3.83224 23.8695 3.75644ZM14.8286 22.854C16.0413 23.3593 17.3916 23.4275 18.6489 23.0469C19.9062 22.6664 20.9925 21.8607 21.7223 20.7675C22.4521 19.6743 22.7801 18.3613 22.6503 17.0529C22.5204 15.7446 21.9408 14.5219 21.0105 13.5937C20.4174 13.0004 19.7002 12.5461 18.9107 12.2635C18.1212 11.981 17.2788 11.8771 16.4444 11.9595C15.61 12.0419 14.8041 12.3085 14.085 12.74C13.3658 13.1715 12.7511 13.7573 12.2853 14.4552C11.8194 15.153 11.5139 15.9456 11.3908 16.7758C11.2677 17.606 11.33 18.4533 11.5732 19.2565C11.8164 20.0597 12.2346 20.799 12.7975 21.421C13.3604 22.0431 14.0541 22.5325 14.8286 22.854ZM10.8213 11.4233C11.6327 10.6111 12.5959 9.96682 13.6561 9.52726C14.7162 9.0877 15.8525 8.86145 17 8.86145C18.1475 8.86145 19.2838 9.0877 20.3439 9.52726C21.4041 9.96682 22.3673 10.6111 23.1787 11.4233C23.9901 12.2355 24.6338 13.1997 25.0729 14.2609C25.512 15.3221 25.738 16.4595 25.738 17.6082C25.738 18.7568 25.512 19.8942 25.0729 20.9554C24.6338 22.0166 23.9901 22.9808 23.1787 23.793C21.54 25.4333 19.3175 26.3549 17 26.3549C14.6825 26.3549 12.46 25.4333 10.8213 23.793C9.18257 22.1527 8.26196 19.9279 8.26196 17.6082C8.26196 15.2884 9.18257 13.0636 10.8213 11.4233ZM27.676 10.1641C27.8771 9.97419 28.038 9.74588 28.1494 9.49263C28.2607 9.23937 28.3202 8.96633 28.3242 8.68967C28.3282 8.41301 28.2768 8.13835 28.1728 7.88196C28.0689 7.62557 27.9147 7.39265 27.7192 7.197C27.5238 7.00135 27.2911 6.84694 27.0349 6.74293C26.7788 6.63891 26.5044 6.58739 26.228 6.59142C25.9516 6.59546 25.6789 6.65496 25.4259 6.76641C25.1729 6.87786 24.9448 7.03898 24.7551 7.24025C24.3862 7.63169 24.1842 8.15162 24.1921 8.68967C24.1999 9.22773 24.4169 9.74154 24.7971 10.122C25.1772 10.5025 25.6905 10.7198 26.228 10.7276C26.7655 10.7355 27.285 10.5333 27.676 10.1641Z" fill="#001400"/>
</svg>
