<svg width="24" height="30" viewBox="0 0 24 30" fill="none" xmlns="http://www.w3.org/2000/svg">
<path d="M21.3663 29H1.91375C1.42992 29 1.05682 28.5738 1.12076 28.0942L3.74476 8.41424C3.79776 8.01679 4.13678 7.71997 4.53775 7.71997H18.7423C19.1432 7.71997 19.4822 8.0168 19.5352 8.41424L22.1592 28.0942C22.2232 28.5738 21.8501 29 21.3663 29Z" stroke="#001400" stroke-width="2"/>
<path d="M14.7192 11.2282C14.7192 11.6424 15.055 11.9782 15.4692 11.9782C15.8835 11.9782 16.2192 11.6424 16.2192 11.2282L14.7192 11.2282ZM14.7192 3.78949L14.7192 11.2282L16.2192 11.2282L16.2192 3.78949L14.7192 3.78949Z" fill="#001400"/>
<path d="M8.65039 3.78948L7.90039 3.78948L8.65039 3.78948ZM7.90039 11.2282C7.90039 11.6424 8.23618 11.9782 8.65039 11.9782C9.0646 11.9782 9.40039 11.6424 9.40039 11.2282L7.90039 11.2282ZM7.90039 3.78948L7.90039 11.2282L9.40039 11.2282L9.40039 3.78948L7.90039 3.78948ZM16.2192 3.78948C16.2192 2.59765 15.6597 1.68337 14.8449 1.09081C14.0521 0.514244 13.0361 0.249995 12.0598 0.249996C11.0834 0.249997 10.0675 0.514247 9.2747 1.09081C8.45992 1.68337 7.90039 2.59765 7.90039 3.78948L9.40039 3.78948C9.40039 3.12165 9.69321 2.64119 10.157 2.30392C10.6427 1.95066 11.3314 1.75 12.0598 1.75C12.7881 1.75 13.4769 1.95066 13.9626 2.30392C14.4264 2.64118 14.7192 3.12165 14.7192 3.78948L16.2192 3.78948Z" fill="#001400"/>
</svg>
