<svg width="14" height="15" viewBox="0 0 14 15" fill="none" xmlns="http://www.w3.org/2000/svg">
<g clip-path="url(#clip0_762_69)">
<path fill-rule="evenodd" clip-rule="evenodd" d="M10.0275 9.34761L13.7934 13.2312C13.9257 13.3678 14.0001 13.553 14 13.7461C13.9999 13.9392 13.9255 14.1244 13.793 14.2609C13.6606 14.3974 13.4809 14.474 13.2937 14.474C13.1065 14.4739 12.9269 14.3971 12.7945 14.2605L9.02871 10.377C7.90294 11.2761 6.48732 11.6993 5.06978 11.5603C3.65224 11.4214 2.33928 10.7307 1.398 9.62886C0.456712 8.52699 -0.0421836 7.09674 0.0027973 5.62902C0.0477782 4.1613 0.633259 2.76638 1.64013 1.72803C2.647 0.689678 3.99963 0.0858929 5.42285 0.0395058C6.84606 -0.00688137 8.23295 0.507613 9.30143 1.47832C10.3699 2.44903 11.0396 3.80304 11.1744 5.2649C11.3091 6.72676 10.8988 8.18667 10.0269 9.34761H10.0275ZM5.60028 10.1424C6.71412 10.1424 7.78238 9.68603 8.56996 8.87378C9.3576 8.06159 9.80006 6.95996 9.80006 5.81124C9.80006 4.66257 9.3576 3.56093 8.56996 2.74869C7.78238 1.93646 6.71412 1.48014 5.60028 1.48014C4.4864 1.48014 3.41817 1.93646 2.63055 2.74869C1.84293 3.56093 1.40045 4.66257 1.40045 5.81124C1.40045 6.95996 1.84293 8.06159 2.63055 8.87378C3.41817 9.68603 4.4864 10.1424 5.60028 10.1424Z" fill="#F9F9F9"/>
</g>
<defs>
<clipPath id="clip0_762_69">
<rect width="14" height="15" fill="white"/>
</clipPath>
</defs>
</svg>
