<svg width="20" height="20" viewBox="0 0 20 20" fill="none" xmlns="http://www.w3.org/2000/svg">
<path fill-rule="evenodd" clip-rule="evenodd" d="M14.325 12.4635L19.7048 17.6416C19.8939 17.8237 20.0001 18.0706 20 18.3282C19.9999 18.5856 19.8935 18.8325 19.7043 19.0146C19.5151 19.1966 19.2585 19.2987 18.991 19.2986C18.7235 19.2986 18.467 19.1962 18.2779 19.014L12.8982 13.8359C11.2899 15.0349 9.2676 15.5991 7.24254 15.4138C5.21748 15.2285 3.34182 14.3076 1.99714 12.8385C0.652446 11.3693 -0.0602622 9.46232 0.00399614 7.50536C0.0682546 5.5484 0.904656 3.68851 2.34304 2.30404C3.78143 0.919571 5.71376 0.114524 7.74693 0.0526745C9.78008 -0.00917515 11.7614 0.676817 13.2878 1.97109C14.8141 3.26538 15.7708 5.07072 15.9634 7.01987C16.1558 8.96902 15.5697 10.9156 14.3241 12.4635H14.325ZM8.0004 13.5232C9.5916 13.5232 11.1177 12.9147 12.2428 11.8317C13.368 10.7488 14.0001 9.27994 14.0001 7.74832C14.0001 6.21676 13.368 4.74791 12.2428 3.66492C11.1177 2.58194 9.5916 1.97352 8.0004 1.97352C6.40914 1.97352 4.8831 2.58194 3.75793 3.66492C2.63276 4.74791 2.00065 6.21676 2.00065 7.74832C2.00065 9.27994 2.63276 10.7488 3.75793 11.8317C4.8831 12.9147 6.40914 13.5232 8.0004 13.5232Z" fill="#F9F9F9"/>
</svg>
