<svg width="25" height="26" viewBox="0 0 25 26" fill="none" xmlns="http://www.w3.org/2000/svg">
<path fill-rule="evenodd" clip-rule="evenodd" d="M17.9063 16.2024L24.631 22.9339C24.8674 23.1707 25.0001 23.4917 25 23.8265C24.9999 24.1612 24.8669 24.4821 24.6304 24.7188C24.3939 24.9554 24.0731 25.0882 23.7388 25.0881C23.4044 25.088 23.0837 24.9549 22.8474 24.7181L16.1227 17.9866C14.1124 19.5452 11.5845 20.2787 9.05317 20.0378C6.52185 19.7969 4.17728 18.5997 2.49642 16.6899C0.815558 14.78 -0.0753278 12.3009 0.00499518 9.75684C0.0853182 7.2128 1.13082 4.79494 2.9288 2.99513C4.72679 1.19532 7.1422 0.148759 9.68366 0.0683547C12.2251 -0.0120498 14.7017 0.87974 16.6097 2.5623C18.5176 4.24487 19.7135 6.59182 19.9542 9.12571C20.1948 11.6596 19.4621 14.1901 17.9051 16.2024H17.9063ZM10.0005 17.58C11.9895 17.58 13.8971 16.789 15.3035 15.3811C16.71 13.9733 17.5001 12.0638 17.5001 10.0727C17.5001 8.08167 16.71 6.17216 15.3035 4.76428C13.8971 3.3564 11.9895 2.56545 10.0005 2.56545C8.01143 2.56545 6.10387 3.3564 4.69741 4.76428C3.29095 6.17216 2.50081 8.08167 2.50081 10.0727C2.50081 12.0638 3.29095 13.9733 4.69741 15.3811C6.10387 16.789 8.01143 17.58 10.0005 17.58Z" fill="#F9F9F9"/>
</svg>
