<svg width="26" height="26" viewBox="0 0 26 26" fill="none" xmlns="http://www.w3.org/2000/svg">
<path d="M9.72754 25.0861C10.3303 25.0861 10.8188 24.5739 10.8188 23.9421C10.8188 23.3103 10.3303 22.7981 9.72754 22.7981C9.12483 22.7981 8.63623 23.3103 8.63623 23.9421C8.63623 24.5739 9.12483 25.0861 9.72754 25.0861Z" stroke="#001400" stroke-width="1.5" stroke-linecap="round" stroke-linejoin="round"/>
<path d="M21.7275 25.0861C22.3303 25.0861 22.8188 24.5739 22.8188 23.9421C22.8188 23.3103 22.3303 22.7981 21.7275 22.7981C21.1248 22.7981 20.6362 23.3103 20.6362 23.9421C20.6362 24.5739 21.1248 25.0861 21.7275 25.0861Z" stroke="#001400" stroke-width="1.5" stroke-linecap="round" stroke-linejoin="round"/>
<path d="M1 1.06232H5.36364L8.28727 16.3803C8.38703 16.907 8.66026 17.3801 9.05914 17.7168C9.45802 18.0535 9.95713 18.2324 10.4691 18.2221H21.0727C21.5847 18.2324 22.0838 18.0535 22.4827 17.7168C22.8816 17.3801 23.1548 16.907 23.2545 16.3803L25 6.78225H6.45455" stroke="#001400" stroke-width="1.5" stroke-linecap="round" stroke-linejoin="round"/>
</svg>
