<svg width="35" height="30" viewBox="0 0 35 30" fill="none" xmlns="http://www.w3.org/2000/svg">
<path d="M35 3.97263C33.7129 4.54353 32.3302 4.92928 30.8766 5.10364C32.3765 4.2053 33.4986 2.79142 34.0335 1.12582C32.6244 1.96365 31.0822 2.55339 29.4739 2.8694C28.3924 1.71349 26.9599 0.947342 25.3989 0.689892C23.8378 0.432441 22.2355 0.698096 20.8407 1.44561C19.4459 2.19313 18.3367 3.38068 17.6852 4.8239C17.0338 6.26712 16.8765 7.88525 17.238 9.42708C14.3827 9.28357 11.5895 8.54071 9.03967 7.24669C6.48981 5.95268 4.24026 4.13643 2.43702 1.91583C1.82044 2.98049 1.46591 4.21488 1.46591 5.5295C1.46522 6.71296 1.75637 7.87829 2.31352 8.92211C2.87067 9.96592 3.67659 10.8559 4.65978 11.5132C3.51954 11.4769 2.40446 11.1685 1.40734 10.6136V10.7062C1.40722 12.3661 1.9808 13.9748 3.03076 15.2595C4.08071 16.5443 5.54237 17.4258 7.16771 17.7546C6.10995 18.0411 5.00096 18.0833 3.92451 17.878C4.38309 19.3062 5.27635 20.5551 6.47925 21.4499C7.68215 22.3447 9.13446 22.8405 10.6329 22.868C8.08924 24.8668 4.94786 25.951 1.71408 25.9463C1.14126 25.9464 0.56891 25.9129 0 25.846C3.28247 27.9586 7.10349 29.0798 11.0059 29.0754C24.2161 29.0754 31.4377 18.1233 31.4377 8.62472C31.4377 8.31613 31.43 8.00444 31.4161 7.69585C32.8209 6.67898 34.0334 5.41979 34.9969 3.97726L35 3.97263Z" fill="#001400"/>
</svg>
