<svg width="36" height="22" viewBox="0 0 36 22" fill="none" xmlns="http://www.w3.org/2000/svg">
<path fill-rule="evenodd" clip-rule="evenodd" d="M35.1743 2.02176C35.4233 1.20197 35.1743 0.598389 33.9818 0.598389H30.0444C29.0424 0.598389 28.5804 1.11939 28.3299 1.69445C28.3299 1.69445 26.3274 6.49307 23.491 9.61008C22.573 10.5139 22.156 10.8007 21.655 10.8007C21.4046 10.8007 21.0281 10.5139 21.0281 9.69266V2.02176C21.0281 1.03681 20.7521 0.598389 19.9181 0.598389H13.7262C13.1007 0.598389 12.7242 1.05483 12.7242 1.48875C12.7242 2.42115 14.1432 2.63735 14.2887 5.26188V10.9644C14.2887 12.2151 14.0592 12.4418 13.5582 12.4418C12.2232 12.4418 8.97581 7.62066 7.04835 2.10434C6.67486 1.03081 6.29687 0.598389 5.29039 0.598389H1.34997C0.224995 0.598389 0 1.11939 0 1.69445C0 2.71843 1.33497 7.80534 6.21737 14.5333C9.4723 19.1278 14.0547 21.6187 18.2291 21.6187C20.7326 21.6187 21.0416 21.0661 21.0416 20.1127V16.6399C21.0416 15.5333 21.2786 15.3126 22.072 15.3126C22.657 15.3126 23.6575 15.6009 25.9945 17.8155C28.6644 20.4415 29.1039 21.6187 30.6069 21.6187H34.5443C35.6693 21.6187 36.2332 21.0661 35.9092 19.9731C35.5523 18.886 34.2773 17.308 32.5868 15.4357C31.6688 14.3697 30.2919 13.2211 29.8734 12.646C29.2899 11.9088 29.4564 11.58 29.8734 10.9238C29.8734 10.9238 34.6733 4.27844 35.1728 2.02176H35.1743Z" fill="#001400"/>
</svg>
