<svg width="36" height="37" viewBox="0 0 36 37" fill="none" xmlns="http://www.w3.org/2000/svg">
<path fill-rule="evenodd" clip-rule="evenodd" d="M26.2482 22.1847C25.799 21.961 23.597 20.8829 23.187 20.7328C22.777 20.5841 22.4786 20.5106 22.1787 20.958C21.8803 21.4024 21.0226 22.4084 20.7619 22.7057C20.4996 23.0045 20.2389 23.0406 19.7913 22.8183C19.3436 22.5931 17.8997 22.1232 16.189 20.6037C14.8581 19.4205 13.9583 17.9595 13.6976 17.5121C13.4368 17.0662 13.6689 16.8244 13.8935 16.6022C14.0955 16.4025 14.3412 16.0812 14.5657 15.8214C14.7903 15.5602 14.8642 15.374 15.0134 15.0752C15.1641 14.7779 15.0887 14.5181 14.9757 14.2944C14.8642 14.0707 13.9689 11.874 13.5951 10.9807C13.2318 10.1113 12.8626 10.2299 12.5883 10.2149C12.326 10.2029 12.0276 10.1999 11.7292 10.1999C11.4307 10.1999 10.9454 10.311 10.5354 10.7584C10.124 11.2044 8.96793 12.2839 8.96793 14.4806C8.96793 16.6758 10.5716 18.7974 10.7962 19.0962C11.0208 19.3935 13.9538 23.9009 18.4468 25.8333C19.5169 26.2928 20.3504 26.5675 21 26.7717C22.0732 27.1126 23.0499 27.0645 23.8215 26.9489C24.6807 26.8213 26.4712 25.8694 26.845 24.8273C27.2173 23.7853 27.2173 22.8919 27.1058 22.7057C26.9942 22.5195 26.6958 22.4084 26.2467 22.1847H26.2482ZM18.076 33.3002H18.07C15.4014 33.3007 12.7818 32.586 10.4857 31.2311L9.9431 30.9098L4.3031 32.3843L5.80881 26.9069L5.45461 26.3453C3.96268 23.9795 3.17313 21.2415 3.17721 18.4475C3.18023 10.2644 9.86322 3.60687 18.0821 3.60687C22.0611 3.60687 25.802 5.1534 28.6145 7.95817C30.0017 9.3344 31.1012 10.971 31.8494 12.7733C32.5976 14.5755 32.9796 16.5077 32.9734 18.458C32.9704 26.6411 26.2874 33.3002 18.076 33.3002ZM30.7547 5.82757C29.0941 4.16231 27.1182 2.84192 24.9415 1.94293C22.7649 1.04394 20.4308 0.584212 18.0745 0.590394C8.19624 0.590394 0.153736 8.6008 0.150722 18.446C0.149214 21.5931 0.973662 24.6652 2.54267 27.3723L0 36.626L9.50149 34.1425C12.1299 35.5691 15.0753 36.3166 18.0685 36.3167H18.076C27.9543 36.3167 35.9968 28.3063 35.9999 18.4595C36.0071 16.1131 35.5473 13.7886 34.647 11.6203C33.7467 9.45209 32.4238 7.48321 30.7547 5.82757Z" fill="#001400"/>
</svg>
